<svg xmlns="http://www.w3.org/2000/svg" xmlns:xlink="http://www.w3.org/1999/xlink" width="370" zoomAndPan="magnify" viewBox="0 0 277.5 220.499993" height="294" preserveAspectRatio="xMidYMid meet" version="1.0"><defs><filter x="0%" y="0%" width="100%" height="100%" id="4d6ad0eb36"><feColorMatrix values="0 0 0 0 1 0 0 0 0 1 0 0 0 0 1 0 0 0 1 0" color-interpolation-filters="sRGB"/></filter><g/><mask id="9f0459f9fa"><g filter="url(#4d6ad0eb36)"><rect x="-27.75" width="333" fill="#000000" y="-22.049999" height="264.599992" fill-opacity="0.8"/></g></mask><clipPath id="8d0ee596b5"><path d="M 0.253906 0.652344 L 27 0.652344 L 27 39.445312 L 0.253906 39.445312 Z M 0.253906 0.652344 " clip-rule="nonzero"/></clipPath><clipPath id="7601b1e679"><rect x="0" width="28" y="0" height="40"/></clipPath><mask id="5cc87cf59f"><g filter="url(#4d6ad0eb36)"><rect x="-27.75" width="333" fill="#000000" y="-22.049999" height="264.599992" fill-opacity="0.8"/></g></mask><clipPath id="ffecbd329e"><path d="M 0.371094 0.222656 L 7.792969 0.222656 L 7.792969 13.632812 L 0.371094 13.632812 Z M 0.371094 0.222656 " clip-rule="nonzero"/></clipPath><clipPath id="aa92d55a83"><rect x="0" width="8" y="0" height="14"/></clipPath><mask id="f2a19c4c85"><g filter="url(#4d6ad0eb36)"><rect x="-27.75" width="333" fill="#000000" y="-22.049999" height="264.599992" fill-opacity="0.6"/></g></mask><clipPath id="451783345e"><path d="M 0.00390625 0.488281 L 41.667969 0.488281 L 41.667969 39.761719 L 0.00390625 39.761719 Z M 0.00390625 0.488281 " clip-rule="nonzero"/></clipPath><clipPath id="10e613ef6d"><rect x="0" width="42" y="0" height="40"/></clipPath><mask id="62ae20426e"><g filter="url(#4d6ad0eb36)"><rect x="-27.75" width="333" fill="#000000" y="-22.049999" height="264.599992" fill-opacity="0.8"/></g></mask><clipPath id="11f53a083e"><path d="M 1 0.421875 L 25.566406 0.421875 L 25.566406 20.535156 L 1 20.535156 Z M 1 0.421875 " clip-rule="nonzero"/></clipPath><clipPath id="b952cb2e9b"><rect x="0" width="26" y="0" height="21"/></clipPath><clipPath id="034db27085"><path d="M 15 115 L 159 115 L 159 200.464844 L 15 200.464844 Z M 15 115 " clip-rule="nonzero"/></clipPath><clipPath id="63664de8e2"><path d="M 20 122 L 148 122 L 148 200.464844 L 20 200.464844 Z M 20 122 " clip-rule="nonzero"/></clipPath><mask id="a98703c1c3"><g filter="url(#4d6ad0eb36)"><rect x="-27.75" width="333" fill="#000000" y="-22.049999" height="264.599992" fill-opacity="0.8"/></g></mask><clipPath id="2abced6c8b"><path d="M 0.417969 0.671875 L 31.550781 0.671875 L 31.550781 20.546875 L 0.417969 20.546875 Z M 0.417969 0.671875 " clip-rule="nonzero"/></clipPath><clipPath id="2b5b8cd473"><rect x="0" width="32" y="0" height="21"/></clipPath><mask id="1d3af07e97"><g filter="url(#4d6ad0eb36)"><rect x="-27.75" width="333" fill="#000000" y="-22.049999" height="264.599992" fill-opacity="0.6"/></g></mask><clipPath id="73d62f53c3"><path d="M 0.675781 0.40625 L 12.648438 0.40625 L 12.648438 26.746094 L 0.675781 26.746094 Z M 0.675781 0.40625 " clip-rule="nonzero"/></clipPath><clipPath id="237854d11c"><rect x="0" width="13" y="0" height="27"/></clipPath><mask id="93486b169a"><g filter="url(#4d6ad0eb36)"><rect x="-27.75" width="333" fill="#000000" y="-22.049999" height="264.599992" fill-opacity="0.6"/></g></mask><clipPath id="30d4a4b177"><path d="M 0.109375 0.183594 L 15.195312 0.183594 L 15.195312 23.886719 L 0.109375 23.886719 Z M 0.109375 0.183594 " clip-rule="nonzero"/></clipPath><clipPath id="f02761f1df"><rect x="0" width="16" y="0" height="24"/></clipPath><clipPath id="0282717db0"><path d="M 8.21875 0 L 157.878906 0 L 157.878906 84.558594 L 8.21875 84.558594 Z M 8.21875 0 " clip-rule="nonzero"/></clipPath></defs><path fill="#5e0094" d="M 88.9375 73.140625 C 80.316406 64.917969 68.679688 60.785156 58.570312 68.238281 C 58.402344 68.714844 58.300781 69.1875 58.183594 69.675781 C 49.410156 105.859375 31.277344 171.488281 4.9375 196.839844 C 26.632812 204.140625 40.914062 195.121094 49.691406 180.402344 C 52.628906 174.785156 55.644531 166.328125 58.46875 159.042969 C 67.972656 133.074219 80.714844 98.890625 88.9375 73.140625 Z M 88.9375 73.140625 " fill-opacity="1" fill-rule="nonzero"/><path fill="#7d00ae" d="M 58.570312 68.238281 C 58.558594 68.238281 58.558594 68.238281 58.570312 68.238281 C 58.390625 68.714844 58.878906 69.242188 58.710938 69.714844 C 45.828125 104.574219 31.5625 170.574219 4.925781 196.851562 C 21.898438 201.394531 38.464844 191.269531 46.304688 176.554688 C 52.425781 167.238281 82.320312 72.652344 83.71875 68.832031 C 83.703125 68.816406 64.84375 63.363281 58.570312 68.238281 Z M 58.570312 68.238281 " fill-opacity="1" fill-rule="nonzero"/><path fill="#9c00c9" d="M 58.570312 68.238281 C 58.570312 68.238281 59.3125 69.203125 59.300781 69.203125 C 59.300781 69.203125 58.609375 68.253906 58.609375 68.253906 C 58.441406 68.726562 58.75 69.601562 58.722656 70.101562 C 57.273438 97.96875 47.792969 161.554688 4.925781 196.839844 C 22.554688 200.328125 39.425781 181.800781 49.421875 159.925781 C 59.8125 134.984375 70.644531 92.785156 78.664062 67.738281 C 78.558594 67.714844 62.945312 64.890625 58.570312 68.238281 Z M 58.570312 68.238281 " fill-opacity="1" fill-rule="nonzero"/><path fill="#5e0094" d="M 64.753906 65.496094 C 61.238281 66.265625 60.136719 67.164062 58.570312 68.226562 C 54.078125 80.683594 49.703125 94.992188 45.636719 107.886719 C 35.4375 137.550781 26.828125 173.296875 4.9375 196.828125 C 33.050781 188.421875 64.84375 65.480469 64.753906 65.496094 Z M 64.753906 65.496094 " fill-opacity="1" fill-rule="nonzero"/><path fill="#ba00e3" d="M 64.703125 65.710938 C 64.125 69.023438 31.472656 187.832031 5.054688 196.8125 C 48.085938 185.601562 62.34375 95.75 72.285156 65.457031 C 71.835938 66.828125 68.398438 64.96875 64.703125 65.710938 Z M 64.703125 65.710938 " fill-opacity="1" fill-rule="nonzero"/><g mask="url(#9f0459f9fa)"><g transform="matrix(1, 0, 0, 1, 58, 64)"><g clip-path="url(#7601b1e679)"><g clip-path="url(#8d0ee596b5)"><path fill="#5e0094" d="M 26.859375 21.726562 C 26.859375 21.726562 26.847656 21.753906 26.832031 21.804688 C 26.808594 21.882812 26.757812 22.023438 26.691406 22.214844 C 25.960938 24.320312 22.984375 32.828125 20.574219 39.292969 C 19.390625 0.738281 0.570312 4.226562 0.570312 4.226562 C 0.773438 4.085938 0.96875 3.945312 1.160156 3.804688 C 1.777344 3.378906 2.367188 3.019531 2.929688 2.714844 C 5.097656 1.496094 6.765625 1.019531 7.140625 0.917969 C 7.152344 0.917969 7.175781 0.902344 7.175781 0.902344 C 7.191406 0.902344 7.203125 0.890625 7.214844 0.890625 L 12.59375 2.585938 L 13.734375 2.945312 L 15.851562 4.613281 L 20.136719 8 L 24.371094 11.335938 L 24.679688 12.632812 Z M 26.859375 21.726562 " fill-opacity="1" fill-rule="nonzero"/></g></g></g></g><path fill="#9c00c9" d="M 58.570312 68.226562 C 58.582031 68.214844 58.632812 68.175781 58.738281 68.125 C 58.671875 68.164062 58.621094 68.203125 58.570312 68.226562 Z M 58.570312 68.226562 " fill-opacity="1" fill-rule="nonzero"/><path fill="#ba00e3" d="M 164.730469 92.386719 C 143.636719 128.902344 104.464844 154.871094 58.429688 159.042969 C 56.582031 164.136719 54.554688 169.421875 52.308594 174.617188 C 93.816406 172.640625 150.382812 139.757812 164.730469 92.386719 C 164.753906 92.335938 164.730469 92.386719 164.730469 92.386719 Z M 164.730469 92.386719 " fill-opacity="1" fill-rule="nonzero"/><path fill="#9c00c9" d="M 164.730469 92.386719 C 143.636719 128.902344 104.464844 154.871094 58.429688 159.042969 C 56.582031 164.136719 56.53125 164.070312 54.667969 168.996094 C 96.175781 167.023438 143.980469 139.949219 164.730469 92.386719 C 164.753906 92.335938 164.730469 92.386719 164.730469 92.386719 Z M 164.730469 92.386719 " fill-opacity="1" fill-rule="nonzero"/><path fill="#7d00ae" d="M 58.273438 159.09375 C 56.425781 164.1875 57.542969 161.503906 55.976562 165.535156 C 97.484375 163.558594 142.957031 136.371094 164.730469 92.386719 C 143.636719 128.902344 104.324219 154.921875 58.273438 159.09375 Z M 58.273438 159.09375 " fill-opacity="1" fill-rule="nonzero"/><path fill="#5e0094" d="M 135.230469 127.335938 C 133.832031 128.503906 132.410156 129.648438 130.960938 130.761719 C 121.027344 138.410156 109.941406 144.761719 97.984375 149.546875 C 97.292969 149.828125 96.597656 150.097656 95.90625 150.367188 C 93.480469 151.292969 91.019531 152.164062 88.527344 152.960938 C 88.132812 153.089844 87.734375 153.203125 87.347656 153.332031 C 78.625 156.039062 69.5 157.925781 60.097656 158.898438 C 59.558594 158.953125 59.019531 159.015625 58.480469 159.054688 C 58.390625 159.066406 58.3125 159.066406 58.222656 159.078125 C 57.710938 160.503906 57.261719 161.015625 56.824219 161.132812 L 56.824219 162.570312 C 56.941406 162.558594 57.042969 162.558594 57.160156 162.542969 C 58.234375 162.453125 59.328125 162.351562 60.40625 162.234375 C 70.066406 161.183594 79.996094 158.964844 89.773438 155.617188 C 90.09375 155.5 90.425781 155.398438 90.75 155.28125 C 93.210938 154.421875 95.664062 153.484375 98.101562 152.472656 C 98.921875 152.136719 99.742188 151.777344 100.550781 151.433594 C 111.457031 146.683594 121.992188 140.488281 131.550781 132.90625 C 133.179688 131.621094 134.769531 130.289062 136.335938 128.914062 C 147.832031 118.867188 157.683594 106.667969 164.730469 92.425781 C 157.109375 105.589844 147.085938 117.417969 135.230469 127.335938 Z M 135.230469 127.335938 " fill-opacity="1" fill-rule="nonzero"/><path fill="#5e0094" d="M 164.730469 92.386719 C 159.671875 109.527344 151.101562 124.757812 140.015625 137.523438 C 138.902344 138.808594 137.757812 140.078125 136.589844 141.308594 C 136.308594 141.605469 136.039062 141.898438 135.757812 142.183594 C 135 142.976562 134.21875 143.746094 133.449219 144.515625 C 127.300781 150.574219 120.527344 155.949219 113.292969 160.59375 C 111.984375 161.441406 110.648438 162.25 109.300781 163.042969 C 105.746094 165.136719 102.101562 167.058594 98.355469 168.792969 C 98.011719 168.945312 97.675781 169.113281 97.332031 169.265625 C 84.847656 174.925781 71.386719 178.582031 57.492188 179.953125 C 54.886719 180.210938 52.28125 180.378906 49.652344 180.46875 C 49.664062 180.441406 49.679688 180.402344 49.691406 180.378906 C 50.601562 178.464844 51.472656 176.542969 52.308594 174.589844 C 52.335938 174.589844 52.347656 174.589844 52.371094 174.589844 C 54.644531 174.488281 56.964844 174.285156 59.3125 173.988281 C 70.824219 172.566406 83.179688 168.984375 95.304688 163.570312 C 95.699219 163.390625 96.097656 163.210938 96.496094 163.03125 C 99.320312 161.75 102.117188 160.363281 104.886719 158.875 C 106.03125 158.257812 107.171875 157.644531 108.300781 156.988281 C 116.472656 152.34375 124.324219 146.890625 131.511719 140.707031 C 132.113281 140.191406 132.71875 139.667969 133.308594 139.128906 C 133.882812 138.613281 134.476562 138.089844 135.039062 137.550781 C 136.359375 136.332031 137.65625 135.085938 138.914062 133.816406 C 150.730469 121.988281 160.019531 107.976562 164.730469 92.386719 Z M 164.730469 92.386719 " fill-opacity="1" fill-rule="nonzero"/><g mask="url(#5cc87cf59f)"><g transform="matrix(1, 0, 0, 1, 129, 131)"><g clip-path="url(#aa92d55a83)"><g clip-path="url(#ffecbd329e)"><path fill="#5e0094" d="M 7.589844 10.324219 C 7.308594 10.617188 6.757812 11.195312 6.757812 11.195312 C 6 11.992188 5.21875 12.761719 4.449219 13.53125 C 4.269531 13.503906 4.152344 13.480469 4.152344 13.480469 L 2.511719 9.707031 L 0.535156 5.191406 L 0.832031 3.203125 L 1.253906 0.289062 L 1.253906 0.261719 C 1.253906 0.261719 1.253906 0.261719 1.265625 0.277344 C 1.355469 0.339844 1.945312 0.75 2.792969 1.660156 C 3.691406 2.648438 4.871094 4.214844 6.039062 6.5625 C 6.566406 7.628906 7.089844 8.871094 7.589844 10.285156 C 7.589844 10.296875 7.589844 10.308594 7.589844 10.324219 Z M 7.589844 10.324219 " fill-opacity="1" fill-rule="nonzero"/></g></g></g></g><path fill="#5e0094" d="M 134.921875 144.375 C 129.214844 134.164062 121.09375 119.28125 112.074219 105.089844 C 111.136719 103.613281 110.1875 102.152344 109.222656 100.699219 C 103.15625 91.488281 96.765625 82.828125 90.453125 76.257812 C 85.347656 70.945312 80.304688 66.996094 75.53125 65.25 C 73.980469 64.671875 72.453125 64.339844 70.976562 64.261719 C 71.066406 64.261719 71.15625 64.25 71.246094 64.25 C 80.367188 63.902344 87.089844 64.648438 92.558594 67.046875 C 93.75 67.558594 94.867188 68.164062 95.957031 68.84375 C 101.988281 72.628906 106.542969 78.992188 111.625 88.898438 C 121.566406 107.347656 128.417969 126.414062 134.921875 144.363281 C 134.921875 144.351562 134.921875 144.363281 134.921875 144.375 Z M 134.921875 144.375 " fill-opacity="1" fill-rule="nonzero"/><path fill="#9c00c9" d="M 58.570312 68.238281 C 58.582031 68.238281 58.582031 68.226562 58.59375 68.226562 C 58.582031 68.226562 58.570312 68.226562 58.570312 68.238281 Z M 58.570312 68.238281 " fill-opacity="1" fill-rule="nonzero"/><path fill="#9c00c9" d="M 153.914062 197.03125 L 153.847656 197.03125 C 135.667969 157.859375 109.941406 112.734375 84.898438 79.171875 C 82.792969 76.757812 80.636719 74.296875 78.136719 72.011719 C 73.390625 67.507812 66.203125 63.429688 59.957031 67.316406 C 99.78125 43.285156 140.25 170.652344 153.914062 197.03125 Z M 153.914062 197.03125 " fill-opacity="1" fill-rule="nonzero"/><path fill="#7d00ae" d="M 153.847656 197.03125 L 153.824219 197.03125 C 153.628906 196.648438 153.4375 196.273438 153.234375 195.890625 C 145.585938 181.160156 134.925781 165.160156 122.117188 148.53125 C 114.820312 139.050781 106.824219 129.351562 98.28125 119.574219 C 97.242188 116.878906 96.355469 114.597656 95.855469 113.328125 C 93.417969 106.527344 90.402344 98.316406 87.835938 92.296875 C 87.59375 91.746094 87.359375 91.207031 87.128906 90.691406 C 86.898438 90.179688 86.679688 89.679688 86.449219 89.203125 C 81.191406 77.964844 75.378906 68.753906 68.898438 66.25 C 68.9375 66.265625 68.960938 66.277344 69 66.289062 C 83.910156 68.367188 102.179688 95.710938 118.589844 125.976562 C 123.863281 135.691406 128.933594 145.710938 133.652344 155.292969 C 141.761719 171.742188 148.78125 186.910156 153.847656 197.03125 Z M 153.847656 197.03125 " fill-opacity="1" fill-rule="nonzero"/><path fill="#ba00e3" d="M 153.964844 197.03125 L 153.914062 197.03125 C 149.460938 187.410156 143.621094 172.988281 136.808594 157.128906 C 133.820312 150.1875 130.652344 142.976562 127.328125 135.78125 C 126.878906 134.804688 126.429688 133.84375 125.980469 132.867188 C 120.71875 121.652344 115.101562 110.566406 109.222656 100.675781 C 103.246094 90.601562 97.007812 81.789062 90.660156 75.335938 C 84.347656 68.933594 77.917969 64.878906 71.488281 64.25 C 71.414062 64.238281 71.335938 64.238281 71.246094 64.222656 C 71.335938 64.238281 71.4375 64.238281 71.527344 64.25 C 72.515625 64.339844 73.480469 64.453125 74.429688 64.597656 C 74.441406 64.597656 74.441406 64.597656 74.441406 64.597656 C 80.921875 65.585938 86.566406 67.933594 91.570312 71.304688 C 113.0625 85.777344 122.632812 119.101562 134.910156 144.335938 C 135.066406 144.671875 135.230469 144.992188 135.398438 145.324219 C 135.527344 145.671875 135.640625 146.019531 135.769531 146.363281 C 136.128906 147.390625 136.5 148.417969 136.859375 149.457031 C 137.335938 150.828125 137.824219 152.203125 138.296875 153.601562 C 138.335938 153.691406 138.363281 153.792969 138.402344 153.882812 C 143.699219 169.214844 148.984375 185.433594 153.964844 197.03125 Z M 153.964844 197.03125 " fill-opacity="1" fill-rule="nonzero"/><g mask="url(#f2a19c4c85)"><g transform="matrix(1, 0, 0, 1, 98, 119)"><g clip-path="url(#10e613ef6d)"><g clip-path="url(#451783345e)"><path fill="#5e0094" d="M 41.464844 39.683594 C 40.617188 39.179688 39.734375 38.667969 38.824219 38.128906 C 29.316406 32.5625 16.820312 25.234375 7.835938 19.988281 C 7.824219 19.949219 2.488281 6.246094 0.292969 0.574219 C 11.53125 4.527344 21.785156 9.570312 29.328125 16.78125 C 33.382812 20.65625 36.65625 25.171875 38.859375 30.46875 C 39.335938 31.84375 39.824219 33.214844 40.296875 34.613281 C 40.335938 34.703125 40.363281 34.804688 40.402344 34.894531 C 40.851562 36.4375 41.195312 38.027344 41.464844 39.683594 Z M 41.464844 39.683594 " fill-opacity="1" fill-rule="nonzero"/></g></g></g></g><path fill="#5e0094" d="M 153.246094 195.902344 C 145.597656 181.171875 134.9375 165.175781 122.132812 148.546875 C 114.832031 139.0625 106.839844 129.363281 98.292969 119.585938 C 97.253906 116.894531 96.367188 114.609375 95.867188 113.339844 C 93.429688 106.539062 90.414062 98.328125 87.847656 92.308594 C 87.605469 91.757812 87.375 91.21875 87.144531 90.707031 C 91.378906 92.488281 100.011719 104.394531 109.777344 119.832031 C 116.191406 129.96875 123.105469 141.628906 129.597656 152.933594 C 139.632812 170.382812 148.640625 187.011719 153.246094 195.902344 Z M 153.246094 195.902344 " fill-opacity="1" fill-rule="nonzero"/><g mask="url(#62ae20426e)"><g transform="matrix(1, 0, 0, 1, 88, 149)"><g clip-path="url(#b952cb2e9b)"><g clip-path="url(#11f53a083e)"><path fill="#5e0094" d="M 25.277344 11.621094 C 20.171875 14.878906 14.835938 17.84375 9.292969 20.304688 C 8.023438 14.109375 5.226562 6.988281 1.15625 3.792969 C 4.761719 2.675781 6.480469 1.957031 9.984375 0.546875 C 14.191406 3.585938 21.070312 8.566406 25.277344 11.621094 Z M 25.277344 11.621094 " fill-opacity="1" fill-rule="nonzero"/></g></g></g></g><path fill="#5e0094" d="M 159.96875 194.171875 C 159.96875 194.171875 159.96875 194.160156 159.957031 194.160156 C 158.363281 191 156.003906 187.511719 153.425781 183.703125 C 134.179688 155.203125 89.414062 112.160156 44.839844 110.992188 C 7.8125 110.335938 -0.644531 143.617188 20.066406 164.226562 C 21.269531 165.429688 22.582031 166.585938 23.980469 167.6875 C 23.59375 168.5625 22.375 171.140625 21.578125 172.566406 C 19.65625 171.382812 17.871094 170.113281 16.230469 168.78125 C -14.359375 144.003906 4.359375 96.558594 47.792969 100.945312 C 95.585938 104.574219 151.910156 156.511719 159.96875 194.171875 Z M 159.96875 194.171875 " fill-opacity="1" fill-rule="nonzero"/><g clip-path="url(#034db27085)"><path fill="#9c00c9" d="M 158.210938 195.800781 C 155.324219 198.226562 151.65625 199.855469 147.921875 200.085938 C 144.394531 193.632812 140.234375 187.28125 135.769531 181.328125 C 126.417969 168.882812 115.472656 157.554688 103.398438 147.738281 C 84.921875 133.019531 39.066406 113.09375 24.351562 130.453125 C 19.527344 138.011719 21.308594 149.609375 29.253906 155.628906 C 28.367188 157.859375 27.648438 159.375 26.777344 161.351562 C 13.597656 150.445312 10.082031 127.425781 29.546875 118.867188 C 77.878906 98.46875 141.503906 169.511719 154.027344 197.277344 C 154.066406 197.261719 158.171875 195.8125 158.210938 195.800781 Z M 158.210938 195.800781 " fill-opacity="1" fill-rule="nonzero"/></g><g clip-path="url(#63664de8e2)"><path fill="#5e0094" d="M 147.910156 200.074219 C 139.570312 200.636719 131.253906 195.019531 126.40625 187.074219 C 114.175781 169.125 69.785156 125.65625 38.824219 128.914062 C 28.355469 130.402344 21.488281 142.324219 31.023438 151.125 C 30.921875 151.382812 29.574219 154.84375 29.136719 155.960938 C 19.960938 149.226562 18.539062 137.484375 24.351562 130.46875 C 41.914062 108.988281 86.230469 133.496094 103.375 147.738281 C 115.445312 157.554688 126.40625 168.882812 135.746094 181.328125 C 140.222656 187.269531 144.378906 193.621094 147.910156 200.074219 Z M 147.910156 200.074219 " fill-opacity="1" fill-rule="nonzero"/></g><path fill="#ba00e3" d="M 159.96875 194.171875 C 158.621094 195.992188 156.300781 197.570312 154.347656 198.316406 C 141.828125 172.769531 93.507812 116.046875 47.097656 116.070312 C 31.625 116.085938 17.011719 123.269531 16.164062 137.921875 C 15.550781 145.734375 19.128906 153.140625 24.03125 158.59375 C 24.914062 159.582031 25.851562 160.503906 26.800781 161.351562 C 26.828125 161.375 26.851562 161.402344 26.878906 161.414062 C 25.351562 164.917969 24.015625 167.703125 24.003906 167.703125 C 22.566406 166.765625 21.195312 165.6875 19.898438 164.480469 C 13.90625 158.925781 9.582031 150.714844 8.980469 142.128906 C 7.425781 120.140625 25.53125 109.707031 45.367188 108.757812 C 94.867188 106.410156 136.515625 157.078125 153.707031 183.636719 C 156.441406 187.84375 158.542969 191.449219 159.980469 194.144531 C 159.96875 194.160156 159.96875 194.171875 159.96875 194.171875 Z M 159.96875 194.171875 " fill-opacity="1" fill-rule="nonzero"/><g mask="url(#a98703c1c3)"><g transform="matrix(1, 0, 0, 1, 37, 126)"><g clip-path="url(#2b5b8cd473)"><g clip-path="url(#2abced6c8b)"><path fill="#5e0094" d="M 26.175781 20.351562 C 26.175781 20.351562 15.796875 7.535156 0.617188 6.289062 C 1.757812 2.621094 2.503906 0.8125 2.503906 0.8125 L 21.683594 3.210938 L 31.21875 6.558594 Z M 26.175781 20.351562 " fill-opacity="1" fill-rule="nonzero"/></g></g></g></g><g mask="url(#1d3af07e97)"><g transform="matrix(1, 0, 0, 1, 48, 155)"><g clip-path="url(#237854d11c)"><g clip-path="url(#73d62f53c3)"><path fill="#5e0094" d="M 11.300781 19.015625 C 10.863281 20.964844 10.273438 22.980469 9.480469 24.980469 C 6.875 25.238281 4.269531 25.402344 1.640625 25.507812 C 1.652344 25.480469 1.664062 25.441406 1.679688 25.417969 C 1.433594 25.828125 1.179688 26.226562 0.933594 26.636719 C 3.921875 17.921875 6.105469 9.558594 6.71875 0.601562 L 10.8125 3.117188 C 10.699219 3.425781 10.582031 3.746094 10.453125 4.054688 C 10.992188 4.003906 11.53125 3.953125 12.070312 3.898438 L 12.160156 3.953125 C 12.597656 7.851562 12.570312 13.203125 11.300781 19.015625 Z M 11.300781 19.015625 " fill-opacity="1" fill-rule="nonzero"/></g></g></g></g><path fill="#5e0094" d="M 87.144531 90.691406 C 76.546875 68.316406 62.496094 65.40625 58.558594 68.238281 C 59.789062 66.96875 62.945312 65.417969 65.203125 64.917969 C 75.148438 62.773438 86.449219 64.171875 92.558594 67.035156 C 90.632812 66.714844 88.707031 66.660156 87.128906 66.699219 C 84.859375 66.765625 82.589844 66.546875 80.367188 66.019531 C 79.265625 65.765625 78.019531 65.558594 76.851562 65.585938 C 71.902344 65.6875 70.578125 66.597656 70.578125 66.597656 C 70.578125 66.597656 78.417969 70.960938 87.144531 90.691406 Z M 87.144531 90.691406 " fill-opacity="1" fill-rule="nonzero"/><g mask="url(#93486b169a)"><g transform="matrix(1, 0, 0, 1, 16, 149)"><g clip-path="url(#f02761f1df)"><g clip-path="url(#30d4a4b177)"><path fill="#5e0094" d="M 15.035156 2.125 C 14.933594 2.382812 13.585938 5.84375 13.148438 6.960938 C 12.277344 9.144531 11.648438 10.425781 10.8125 12.351562 C 10.839844 12.375 10.867188 12.402344 10.890625 12.414062 C 9.363281 15.917969 8.03125 18.703125 8.015625 18.703125 C 7.632812 19.574219 6.414062 22.152344 5.617188 23.578125 C 3.691406 22.398438 1.910156 21.125 0.265625 19.792969 C 0.242188 19.78125 0.230469 19.753906 0.230469 19.753906 C 0.230469 19.753906 2.769531 16.945312 3.910156 15.480469 C 3.976562 15.40625 4.039062 15.316406 4.105469 15.238281 C 5.539062 13.378906 6.847656 11.476562 7.992188 9.695312 C 8.015625 9.65625 8.03125 9.628906 8.054688 9.59375 C 9.132812 7.886719 10.070312 6.292969 10.851562 4.910156 C 10.929688 4.78125 10.992188 4.652344 11.070312 4.523438 C 12.417969 2.074219 13.164062 0.457031 13.277344 0.226562 C 13.738281 0.867188 14.367188 1.457031 15.035156 2.125 Z M 15.035156 2.125 " fill-opacity="1" fill-rule="nonzero"/></g></g></g></g><path fill="#5e0094" d="M 87.988281 68.984375 L 86.167969 68.074219 C 87.246094 68.574219 87.898438 68.933594 87.988281 68.984375 Z M 87.988281 68.984375 " fill-opacity="1" fill-rule="nonzero"/><g clip-path="url(#0282717db0)"><path fill="#000000" d="M 157.878906 29.277344 L 153.78125 33.105469 L 154.386719 35.726562 C 134.730469 57.511719 121.75 67.816406 117.960938 62.324219 C 114.933594 51.902344 116.449219 41.597656 121.210938 31.371094 L 125.253906 29.476562 L 126.035156 20.507812 L 119.820312 27.019531 L 121.09375 31.382812 C 115.953125 40.007812 110.429688 47.644531 104.117188 53.226562 C 97.46875 59.101562 95.441406 59.925781 91.140625 50.683594 C 87.953125 43.835938 86.863281 34.660156 84.722656 26.648438 L 90.167969 20.292969 L 83.050781 0.0234375 L 75.933594 20.292969 L 81.378906 26.648438 C 79.238281 34.65625 78.148438 43.835938 74.960938 50.683594 C 70.660156 59.925781 68.632812 59.101562 61.984375 53.226562 C 55.667969 47.644531 50.148438 40.003906 45.007812 31.382812 L 46.28125 27.019531 L 40.0625 20.507812 L 40.84375 29.476562 L 44.894531 31.371094 C 49.652344 41.597656 51.167969 51.902344 48.140625 62.324219 C 44.351562 67.816406 31.375 57.511719 11.714844 35.726562 L 12.316406 33.105469 L 8.21875 29.277344 L 9.027344 34.828125 L 11.457031 35.800781 L 39.460938 84.554688 L 30.863281 60.871094 C 31.035156 61.011719 31.210938 61.152344 31.386719 61.292969 C 35.769531 64.804688 43.453125 70.488281 49.273438 67.101562 C 50.261719 66.53125 51.085938 65.742188 51.734375 64.804688 L 52.136719 64.222656 L 52.332031 63.542969 C 53.507812 59.496094 54.054688 55.480469 54.0625 51.503906 C 55.660156 53.265625 57.335938 54.941406 59.09375 56.492188 C 62.054688 59.109375 65.804688 62.558594 70.082031 61.925781 C 74.707031 61.246094 77.15625 56.316406 78.917969 52.523438 C 80.875 48.320312 82.046875 43.632812 83.050781 39.035156 C 84.058594 43.632812 85.226562 48.320312 87.183594 52.523438 C 88.949219 56.316406 91.398438 61.246094 96.023438 61.925781 C 100.300781 62.558594 104.050781 59.109375 107.007812 56.492188 C 108.765625 54.941406 110.441406 53.265625 112.039062 51.503906 C 112.050781 55.480469 112.597656 59.496094 113.769531 63.542969 L 113.964844 64.222656 L 114.367188 64.804688 C 115.015625 65.742188 115.84375 66.53125 116.828125 67.101562 C 122.652344 70.492188 130.332031 64.804688 134.714844 61.292969 C 134.894531 61.152344 135.066406 61.011719 135.242188 60.871094 L 127.695312 82.800781 L 154.644531 35.800781 L 157.074219 34.828125 Z M 157.878906 29.277344 " fill-opacity="1" fill-rule="evenodd"/></g><path fill="#000000" d="M 68.351562 47.375 C 68.855469 49.664062 69.417969 51.980469 70.183594 54.191406 C 70.699219 53.523438 71.390625 52.402344 72.304688 50.519531 C 70.910156 45.375 70.148438 39.527344 68.351562 34.828125 C 66.410156 39.910156 65.675781 46.328125 64.046875 51.753906 C 64.769531 52.390625 65.71875 53.203125 66.625 53.882812 C 67.339844 51.765625 67.875 49.554688 68.351562 47.375 Z M 68.351562 47.375 " fill-opacity="1" fill-rule="evenodd"/><path fill="#000000" d="M 97.707031 47.375 C 98.1875 49.566406 98.722656 51.785156 99.441406 53.910156 C 100.34375 53.238281 101.292969 52.421875 102.019531 51.785156 C 100.386719 46.351562 99.648438 39.917969 97.707031 34.828125 C 95.917969 39.511719 95.15625 45.332031 93.769531 50.464844 C 94.679688 52.339844 95.375 53.472656 95.886719 54.152344 C 96.648438 51.953125 97.207031 49.648438 97.707031 47.375 Z M 97.707031 47.375 " fill-opacity="1" fill-rule="evenodd"/><path fill="#000000" d="M 123.652344 60.519531 C 124.183594 57.035156 125.09375 53.371094 125.183594 50.101562 C 123.125 52.277344 121.324219 55.167969 119.4375 57.824219 C 119.613281 58.789062 119.828125 59.753906 120.082031 60.714844 C 120.652344 59.96875 121.203125 59.199219 121.734375 58.433594 C 121.566406 59.375 121.410156 60.328125 121.289062 61.285156 C 121.875 61.210938 122.644531 60.988281 123.652344 60.519531 Z M 123.652344 60.519531 " fill-opacity="1" fill-rule="evenodd"/><path fill="#000000" d="M 46.664062 57.824219 C 44.777344 55.167969 42.972656 52.277344 40.917969 50.097656 C 41.007812 53.371094 41.917969 57.035156 42.449219 60.515625 C 43.457031 60.988281 44.226562 61.210938 44.8125 61.285156 C 44.6875 60.328125 44.53125 59.375 44.363281 58.433594 C 44.898438 59.199219 45.445312 59.964844 46.019531 60.710938 C 46.273438 59.753906 46.488281 58.789062 46.664062 57.824219 Z M 46.664062 57.824219 " fill-opacity="1" fill-rule="evenodd"/><g fill="#000000" fill-opacity="1"><g transform="translate(166.099368, 182.629147)"><g><path d="M 5.0625 0.0625 L 4.03125 0 L 3.578125 -0.0625 L 2.40625 0 L 2.015625 -0.328125 L 2.015625 -1.5625 L 2.203125 -1.953125 L 2.140625 -2.40625 L 2.34375 -3.3125 L 2.34375 -3.703125 L 2.53125 -4.609375 L 2.734375 -5.59375 L 2.921875 -6.4375 L 2.984375 -6.890625 L 3.1875 -7.671875 L 3.25 -8.125 L 3.3125 -8.515625 L 3.578125 -10.015625 L 3.765625 -10.40625 L 3.828125 -11.25 L 3.90625 -11.703125 L 4.03125 -12.09375 L 4.296875 -12.9375 L 4.359375 -13.328125 L 4.421875 -14.109375 L 4.421875 -14.4375 L 4.75 -15.078125 L 4.75 -15.796875 L 4.875 -16.1875 L 4.875 -16.640625 L 5.0625 -17.03125 L 5.140625 -18 L 5.328125 -19.375 L 5.53125 -19.828125 L 5.59375 -20.34375 L 5.65625 -21.25 L 5.78125 -21.703125 L 5.84375 -22.09375 L 5.984375 -22.5625 L 6.046875 -22.9375 L 6.234375 -23.859375 L 6.3125 -24.375 L 6.4375 -25.34375 L 6.625 -26.390625 L 6.828125 -27.234375 L 6.828125 -28.015625 L 6.890625 -28.859375 L 7.015625 -29.3125 L 7.21875 -29.765625 L 7.28125 -30.609375 L 7.34375 -31 L 7.609375 -32.046875 L 7.671875 -32.765625 L 7.609375 -33.015625 L 7.796875 -33.859375 L 7.859375 -34.25 L 7.9375 -35.421875 L 8.0625 -35.9375 L 8.25 -36.859375 L 8.453125 -37.4375 L 8.515625 -38.21875 L 8.640625 -38.671875 L 8.640625 -39.1875 L 8.78125 -39.65625 L 8.84375 -40.109375 L 8.84375 -40.5 L 8.96875 -40.953125 L 9.234375 -41.984375 L 9.296875 -42.4375 L 9.359375 -42.96875 L 9.5625 -43.875 L 9.625 -44.390625 L 9.875 -45.234375 L 10.40625 -45.5 L 13.78125 -45.5 L 14.625 -45.5625 L 15.46875 -45.5 L 15.859375 -45.5625 L 20.21875 -45.5625 L 20.671875 -45.5 L 21.640625 -45.5625 L 22.5625 -45.5625 L 23.53125 -45.4375 L 24.046875 -45.4375 L 24.890625 -45.3125 L 26.265625 -45.109375 L 27.296875 -44.921875 L 27.75 -44.78125 L 28.203125 -44.453125 L 28.671875 -44.265625 L 29.515625 -43.8125 L 30.09375 -43.296875 L 30.359375 -42.96875 L 30.75 -42.4375 L 31.140625 -41.984375 L 31.328125 -41.46875 L 31.71875 -40.625 L 31.84375 -40.171875 L 32.109375 -39.453125 L 32.171875 -38.734375 L 32.234375 -38.28125 L 32.4375 -37.5625 L 32.375 -36.921875 L 32.4375 -35.9375 L 32.4375 -35.484375 L 32.5 -34.78125 L 32.4375 -34.0625 L 32.3125 -33.34375 L 32.234375 -32.890625 L 32.109375 -31.453125 L 31.984375 -30.546875 L 31.78125 -30.09375 L 31.71875 -29.578125 L 31.53125 -29.125 L 31.453125 -28.734375 L 31.328125 -28.34375 L 31.140625 -27.4375 L 30.9375 -26.90625 L 30.609375 -26 L 30.09375 -24.765625 L 29.765625 -24.046875 L 29.3125 -23.265625 L 28.734375 -22.296875 L 28.34375 -21.90625 L 27.890625 -21.125 L 27.296875 -20.609375 L 26.84375 -19.953125 L 26.515625 -19.5 L 25.671875 -18.84375 L 25.34375 -18.453125 L 24.4375 -18 L 23.796875 -17.8125 L 22.9375 -17.421875 L 21.90625 -17.09375 L 21.125 -16.96875 L 20.28125 -16.90625 L 19.375 -16.765625 L 17.546875 -16.640625 L 16.3125 -16.703125 L 14.890625 -16.703125 L 13.90625 -16.765625 L 13.90625 -16.640625 L 13.84375 -16.1875 L 13.65625 -15.671875 L 13.578125 -14.8125 L 13.453125 -14.5 L 13.390625 -13.65625 L 13.328125 -13.265625 L 13.265625 -12.8125 L 13.125 -12.421875 L 13.0625 -11.953125 L 13.0625 -11.5625 L 12.875 -10.65625 L 12.671875 -10.078125 L 12.546875 -9.296875 L 12.421875 -8.84375 L 12.21875 -8.0625 L 12.15625 -7.609375 L 11.953125 -7.15625 L 11.953125 -6.5 L 11.765625 -5.53125 L 11.765625 -4.609375 L 11.5 -4.21875 L 11.5 -3.703125 L 11.4375 -3.25 L 11.3125 -2.859375 L 11.25 -2.40625 L 11.046875 -1.890625 L 10.984375 -1.296875 L 10.921875 -0.78125 L 10.71875 0 L 10.265625 0.0625 Z M 15.28125 -24.953125 L 16.96875 -24.953125 L 17.6875 -25.09375 L 18.921875 -25.21875 L 19.375 -25.421875 L 20.40625 -26.1875 L 21.125 -26.84375 L 21.578125 -27.5625 L 21.84375 -27.953125 L 22.171875 -28.859375 L 22.296875 -29.4375 L 22.5625 -30.03125 L 22.8125 -31.140625 L 23.078125 -32.953125 L 23.203125 -34.640625 L 23.203125 -35.75 L 22.9375 -36.53125 L 22.5625 -37.109375 L 21.84375 -37.640625 L 21.25 -37.765625 L 19.5 -37.828125 L 18 -37.765625 L 17.546875 -37.640625 L 17.21875 -36.859375 L 17.09375 -36.53125 L 17.03125 -35.875 L 16.90625 -34.78125 L 16.765625 -34.3125 L 16.578125 -33.546875 L 16.375 -32.234375 L 16.25 -31.59375 L 16.0625 -30.546875 L 15.984375 -29.765625 L 15.984375 -29.25 L 15.859375 -28.671875 L 15.53125 -27.046875 L 15.53125 -26.453125 L 15.34375 -25.546875 Z M 15.28125 -24.953125 "/></g></g></g><g fill="#000000" fill-opacity="1"><g transform="translate(195.861913, 182.629147)"><g><path d="M 8.578125 0.125 L 6.234375 0.0625 L 5.390625 0.0625 L 3.375 -0.0625 L 2.796875 -0.1875 L 2.671875 -0.578125 L 2.671875 -1.171875 L 2.859375 -1.8125 L 2.921875 -2.46875 L 2.984375 -3.1875 L 2.984375 -3.640625 L 3.125 -4.03125 L 3.125 -4.484375 L 3.3125 -4.9375 L 3.3125 -5.328125 L 3.375 -5.78125 L 3.578125 -6.6875 L 3.578125 -7.15625 L 3.765625 -7.671875 L 3.703125 -8.125 L 3.90625 -8.640625 L 3.96875 -9.5625 L 4.09375 -10.078125 L 4.15625 -10.53125 L 4.09375 -11.046875 L 4.359375 -11.5625 L 4.359375 -12.546875 L 4.6875 -13.71875 L 4.6875 -14.296875 L 4.8125 -14.953125 L 4.875 -15.921875 L 4.875 -16.4375 L 5.140625 -17.359375 L 5.203125 -17.8125 L 5.265625 -18.328125 L 5.265625 -18.921875 L 5.59375 -19.375 L 5.71875 -19.765625 L 5.65625 -20.15625 L 5.71875 -20.9375 L 5.84375 -21.390625 L 6.046875 -21.78125 L 6.046875 -22.171875 L 6.171875 -22.625 L 6.3125 -23.328125 L 6.375 -23.71875 L 6.5 -24.5625 L 6.625 -25.484375 L 6.625 -26 L 6.953125 -27.359375 L 6.953125 -27.8125 L 7.015625 -28.203125 L 7.078125 -28.671875 L 7.21875 -29.515625 L 7.28125 -29.90625 L 7.28125 -30.359375 L 7.34375 -30.75 L 7.609375 -31.53125 L 7.671875 -32.4375 L 7.734375 -32.828125 L 7.9375 -33.734375 L 8.125 -34.78125 L 8.3125 -35.6875 L 8.390625 -36.078125 L 8.390625 -36.46875 L 8.453125 -37.3125 L 8.453125 -37.703125 L 8.578125 -38.15625 L 8.78125 -38.9375 L 8.96875 -39.96875 L 9.234375 -41.796875 L 9.296875 -42.3125 L 9.359375 -42.765625 L 9.359375 -43.296875 L 9.625 -43.8125 L 9.5625 -44.53125 L 9.8125 -44.84375 L 10.265625 -45.375 L 10.921875 -45.5 L 11.828125 -45.5 L 15.734375 -45.4375 L 18.53125 -45.4375 L 18.984375 -45.5 L 19.625 -45.5625 L 20.15625 -45.4375 L 21.125 -45.3125 L 21.703125 -45.3125 L 22.5625 -45.171875 L 23.53125 -45.109375 L 24.25 -44.984375 L 25.28125 -44.984375 L 25.8125 -44.84375 L 26.515625 -44.53125 L 27.109375 -44.265625 L 27.5625 -44.140625 L 28.140625 -43.75 L 28.53125 -43.546875 L 28.859375 -43.359375 L 29.640625 -42.90625 L 29.90625 -42.640625 L 30.21875 -42.25 L 30.484375 -41.921875 L 30.9375 -41.140625 L 31.390625 -40.234375 L 31.59375 -39.1875 L 31.71875 -37.953125 L 31.71875 -37.5 L 31.921875 -36.265625 L 31.921875 -35.75 L 31.71875 -34.84375 L 31.65625 -34.390625 L 31.71875 -33.40625 L 31.71875 -32.953125 L 31.53125 -31.921875 L 31.390625 -30.875 L 31.203125 -30.21875 L 30.9375 -29.4375 L 30.8125 -28.984375 L 30.6875 -28.59375 L 30.484375 -28.140625 L 30.15625 -27.359375 L 29.578125 -26.515625 L 29.375 -26.0625 L 29.125 -25.484375 L 28.59375 -24.640625 L 28.40625 -24.25 L 27.6875 -23.40625 L 27.359375 -23.078125 L 26.453125 -22.09375 L 25.15625 -21.25 L 24.25 -20.796875 L 23.796875 -20.734375 L 23.796875 -20.15625 L 23.984375 -19.625 L 24.3125 -18.65625 L 24.3125 -18.0625 L 24.4375 -17.21875 L 24.703125 -16.828125 L 24.765625 -16.3125 L 24.890625 -15.46875 L 25.09375 -15.078125 L 25.28125 -14.234375 L 25.421875 -13.84375 L 25.546875 -12.9375 L 25.734375 -12.484375 L 25.875 -11.953125 L 26.125 -11.109375 L 26.125 -10.71875 L 26.453125 -9.75 L 26.578125 -8.90625 L 27.296875 -6.5625 L 27.4375 -5.65625 L 27.890625 -4.546875 L 27.953125 -3.765625 L 28.015625 -3.3125 L 28.140625 -2.734375 L 28.59375 -1.5 L 28.40625 -0.65625 L 28.078125 -0.578125 L 27.359375 -0.453125 L 26.515625 -0.453125 L 25.15625 -0.265625 L 23.46875 -0.0625 L 22.625 -0.0625 L 21.90625 0 L 21.390625 0 L 20.796875 0.0625 L 20.40625 0 L 19.828125 -0.578125 L 19.6875 -0.90625 L 19.5 -1.6875 L 19.375 -2.015625 L 19.171875 -2.734375 L 18.78125 -3.703125 L 18.78125 -4.21875 L 18.59375 -4.75 L 18.453125 -4.9375 L 18.328125 -5.78125 L 18.140625 -6.234375 L 18.140625 -6.6875 L 17.9375 -7.078125 L 17.875 -7.546875 L 17.6875 -8.25 L 17.421875 -8.90625 L 17.421875 -9.6875 L 17.03125 -10.859375 L 16.96875 -11.3125 L 16.703125 -12.09375 L 16.578125 -12.546875 L 16.4375 -13.390625 L 16.1875 -14.234375 L 16.125 -15.140625 L 15.984375 -15.46875 L 15.796875 -16.375 L 15.671875 -17.03125 L 15.40625 -17.546875 L 15.28125 -18.0625 L 15.015625 -18.59375 L 14.75 -18.84375 L 14.296875 -18.921875 L 14.234375 -18.65625 L 14.109375 -18.265625 L 13.90625 -17.359375 L 13.84375 -16.828125 L 13.65625 -15.46875 L 13.65625 -14.359375 L 13.328125 -13.515625 L 13.1875 -12.609375 L 13.1875 -12.21875 L 13.0625 -11.3125 L 12.8125 -10.796875 L 12.8125 -9.421875 L 12.671875 -8.90625 L 12.421875 -7.546875 L 12.34375 -7.015625 L 12.21875 -6.625 L 12.21875 -6.109375 L 12.03125 -5.203125 L 12.09375 -4.8125 L 11.953125 -4.359375 L 11.953125 -3.96875 L 11.890625 -3.125 L 11.828125 -2.671875 L 11.828125 -2.28125 L 11.765625 -1.8125 L 11.703125 -1.046875 L 11.5 -0.578125 L 11.3125 0 L 10.65625 -0.0625 L 10.078125 0 L 9.09375 0.0625 Z M 17.03125 -26.65625 L 18.0625 -26.65625 L 18.84375 -26.84375 L 19.234375 -27.109375 L 19.890625 -27.5 L 20.34375 -27.75 L 20.796875 -28.28125 L 21.0625 -28.671875 L 21.515625 -29.0625 L 21.84375 -29.90625 L 21.96875 -30.421875 L 22.03125 -30.8125 L 22.484375 -31.71875 L 22.484375 -32.234375 L 22.6875 -32.765625 L 22.75 -33.796875 L 22.6875 -35.234375 L 22.484375 -36.59375 L 22.171875 -37.1875 L 21.703125 -37.640625 L 21.125 -37.953125 L 19.6875 -38.15625 L 18.140625 -38.21875 L 17.546875 -38.03125 L 17.359375 -37.3125 L 17.15625 -36.859375 L 17.03125 -35.8125 L 16.96875 -34.84375 L 16.90625 -34 L 16.765625 -33.46875 L 16.578125 -32.4375 L 16.578125 -31.984375 L 16.4375 -31 L 16.25 -30.421875 L 16.3125 -29.828125 L 16.1875 -29.25 L 15.984375 -28.203125 L 15.921875 -27.75 L 15.984375 -27.296875 L 15.921875 -26.78125 Z M 17.03125 -26.65625 "/></g></g></g><g fill="#000000" fill-opacity="1"><g transform="translate(226.404268, 182.629147)"><g><path d="M 15.734375 1.046875 L 14.046875 0.84375 L 13.1875 0.90625 L 12.734375 0.84375 L 12.15625 0.78125 L 10.65625 0.328125 L 10.140625 0.265625 L 9.171875 0 L 8.703125 -0.265625 L 7.796875 -0.84375 L 6.625 -1.8125 L 5.71875 -2.859375 L 5.53125 -3.1875 L 5.203125 -3.515625 L 5 -3.90625 L 4.6875 -4.359375 L 4.15625 -5.203125 L 4.15625 -5.59375 L 3.96875 -6.046875 L 3.90625 -6.4375 L 3.765625 -6.765625 L 3.640625 -7.15625 L 3.578125 -7.609375 L 3.4375 -8 L 3.375 -8.90625 L 3.3125 -9.296875 L 3.125 -10.59375 L 3.25 -11.046875 L 3.25 -12.28125 L 3.4375 -12.9375 L 3.375 -13.453125 L 3.375 -13.90625 L 3.515625 -15.34375 L 3.765625 -16.25 L 3.765625 -16.765625 L 3.90625 -17.6875 L 3.90625 -18.140625 L 4.15625 -19.046875 L 4.03125 -19.375 L 4.15625 -20.21875 L 4.296875 -20.671875 L 4.484375 -21.84375 L 4.6875 -22.625 L 4.6875 -23.46875 L 4.875 -24.25 L 4.875 -24.703125 L 5.0625 -25.09375 L 5.203125 -25.546875 L 5.203125 -25.9375 L 5.328125 -26.390625 L 5.265625 -26.78125 L 5.65625 -27.4375 L 5.78125 -27.890625 L 5.78125 -28.796875 L 5.921875 -29.578125 L 6.109375 -30.03125 L 6.171875 -30.421875 L 6.3125 -31.328125 L 6.5625 -32.953125 L 6.890625 -33.40625 L 7.015625 -34.25 L 7.40625 -35.09375 L 7.609375 -35.5625 L 7.859375 -36.328125 L 8.1875 -37.25 L 8.578125 -38.03125 L 8.84375 -38.484375 L 9.421875 -39.328125 L 9.484375 -39.78125 L 9.75 -40.171875 L 10.265625 -41.015625 L 10.796875 -41.796875 L 11.25 -42.125 L 11.5625 -42.515625 L 12.484375 -43.484375 L 13.328125 -44.0625 L 13.84375 -44.265625 L 14.296875 -44.59375 L 15.078125 -45.046875 L 15.859375 -45.4375 L 16.828125 -45.6875 L 17.21875 -45.765625 L 18.203125 -46.015625 L 18.84375 -46.078125 L 20.015625 -46.28125 L 20.9375 -46.34375 L 21.703125 -46.40625 L 22.875 -46.34375 L 23.265625 -46.28125 L 23.984375 -46.21875 L 25.03125 -46.078125 L 25.546875 -45.890625 L 26.0625 -45.828125 L 26.453125 -45.6875 L 27.4375 -45.234375 L 28.59375 -44.453125 L 29.125 -44.140625 L 29.4375 -43.75 L 30.15625 -43.15625 L 30.875 -42.515625 L 31.203125 -42.125 L 31.390625 -41.671875 L 31.78125 -40.8125 L 31.984375 -40.4375 L 32.109375 -40.046875 L 32.234375 -39.578125 L 32.4375 -38.609375 L 32.5625 -37.375 L 32.625 -36.859375 L 32.625 -36.40625 L 32.5625 -35.5625 L 32.5 -35.171875 L 32.5625 -34.3125 L 32.5625 -33.859375 L 32.5 -33.015625 L 32.375 -32.5625 L 32.3125 -32.171875 L 32.375 -31.71875 L 32.375 -31.0625 L 32.3125 -30.6875 L 32.171875 -29.765625 L 32.109375 -28.796875 L 32.046875 -27.75 L 31.921875 -27.296875 L 31.78125 -26.265625 L 31.84375 -25.609375 L 31.53125 -24.890625 L 31.59375 -24.109375 L 31.328125 -23.265625 L 31.203125 -22.421875 L 31 -21.578125 L 30.9375 -20.796875 L 30.75 -19.953125 L 30.546875 -19.5625 L 30.359375 -18.390625 L 30.359375 -17.8125 L 30.21875 -17.359375 L 30.09375 -16.4375 L 29.90625 -16.0625 L 29.25 -13.78125 L 29.3125 -13.390625 L 28.984375 -12.609375 L 28.796875 -12.21875 L 28.734375 -11.5 L 28.40625 -10.796875 L 28.203125 -10.015625 L 28.203125 -9.5625 L 28.015625 -8.84375 L 27.6875 -8.390625 L 27.625 -7.734375 L 27.171875 -6.828125 L 26.65625 -5.65625 L 26.328125 -5.203125 L 25.734375 -4.359375 L 25.484375 -3.96875 L 25.15625 -3.578125 L 25.03125 -3.1875 L 24.25 -2.40625 L 23.859375 -2.078125 L 23.53125 -1.6875 L 22.75 -1.109375 L 21.96875 -0.578125 L 21.703125 -0.390625 L 20.21875 0.1875 L 19.765625 0.265625 L 19.234375 0.390625 L 18.328125 0.578125 L 17.875 0.65625 L 17.15625 0.84375 Z M 15.203125 -7.796875 L 16.0625 -7.796875 L 16.96875 -8.0625 L 17.546875 -8.3125 L 18.453125 -8.96875 L 18.921875 -9.875 L 19.3125 -10.796875 L 19.4375 -11.25 L 19.4375 -11.765625 L 19.625 -12.734375 L 19.765625 -13.1875 L 19.890625 -14.109375 L 20.078125 -14.625 L 20.15625 -15.53125 L 20.34375 -15.984375 L 20.546875 -16.828125 L 20.609375 -17.359375 L 20.796875 -17.75 L 20.796875 -18.265625 L 20.734375 -18.453125 L 20.9375 -19.046875 L 21.125 -20.015625 L 21.25 -21.515625 L 21.453125 -22.09375 L 21.640625 -22.625 L 21.78125 -23.859375 L 21.96875 -24.25 L 21.90625 -25.34375 L 22.171875 -26.328125 L 22.296875 -27.109375 L 22.421875 -27.625 L 22.5625 -28.078125 L 22.484375 -28.53125 L 22.5625 -29.375 L 22.6875 -29.90625 L 22.875 -30.8125 L 23.015625 -31.390625 L 23.015625 -32.234375 L 23.140625 -33.40625 L 23.203125 -34.25 L 23.328125 -35.171875 L 23.078125 -36.46875 L 22.8125 -36.859375 L 22.359375 -37.4375 L 21.3125 -37.890625 L 20.078125 -37.828125 L 19.5625 -37.703125 L 18.53125 -37.3125 L 17.875 -36.71875 L 17.421875 -36.015625 L 17.15625 -35.234375 L 16.90625 -34.78125 L 16.515625 -33.9375 L 16.375 -33.46875 L 16.25 -32.953125 L 15.859375 -31.59375 L 15.859375 -31.453125 L 15.796875 -30.9375 L 15.59375 -30.03125 L 15.53125 -29.640625 L 15.28125 -28.734375 L 15.078125 -27.8125 L 14.890625 -26.78125 L 14.8125 -26.328125 L 14.6875 -25.875 L 14.5625 -24.890625 L 14.359375 -24.375 L 14.109375 -23.328125 L 13.96875 -22.875 L 13.84375 -21.96875 L 13.84375 -21.515625 L 13.78125 -21.0625 L 13.84375 -20.546875 L 13.65625 -20.078125 L 13.328125 -19.171875 L 13.390625 -18.65625 L 13.265625 -18.203125 L 13.328125 -17.9375 L 13.1875 -17.359375 L 13.1875 -16.828125 L 13.0625 -16.375 L 13.0625 -15.859375 L 12.875 -14.890625 L 12.875 -14.4375 L 12.671875 -13.96875 L 12.875 -13.515625 L 12.8125 -12.734375 L 12.546875 -12.09375 L 12.734375 -11.640625 L 12.734375 -9.8125 L 12.9375 -9.359375 L 13.0625 -9.09375 L 13.453125 -8.515625 L 13.78125 -8.1875 L 14.296875 -8 L 14.8125 -7.859375 Z M 15.203125 -7.796875 "/></g></g></g></svg>